<svg id="Capa_1" data-name="Capa 1" xmlns="http://www.w3.org/2000/svg" viewBox="0 0 500.07 500"><defs><style>.cls-1{fill:#e6e6e6;}.cls-2{fill:#dd3223;}.cls-3{fill:#432918;}.cls-4{fill:#fff;}</style></defs><path class="cls-1" d="M326.62,262.8a77.65,77.65,0,0,1-153.18,0H25.9C32.55,380.63,130.53,474.47,250,474.47S467.52,380.63,474.16,262.8Z"/><path class="cls-2" d="M173.43,237.26a77.65,77.65,0,0,1,153.2,0H474.17C467.54,119.39,369.54,25.53,250,25.53S32.53,119.39,25.89,237.26Z"/><path class="cls-3" d="M250,0C112.16,0,0,112.16,0,250S112.16,500,250,500s250-112.14,250-250S387.9,0,250,0Zm0,474.47c-119.5,0-217.48-93.84-224.13-211.67H173.44a77.65,77.65,0,0,0,153.18,0H474.16C467.52,380.63,369.54,474.47,250,474.47Zm0-448.94c119.51,0,217.51,93.86,224.14,211.73H326.63a77.65,77.65,0,0,0-153.2,0H25.89C32.53,119.39,130.53,25.53,250,25.53ZM302.16,250A52.13,52.13,0,1,1,250,197.88,52.18,52.18,0,0,1,302.16,250Z"/><path class="cls-4" d="M250,197.88A52.12,52.12,0,1,0,302.16,250,52.19,52.19,0,0,0,250,197.88Z"/></svg>