<svg xmlns="http://www.w3.org/2000/svg" xmlns:xlink="http://www.w3.org/1999/xlink" viewBox="0 0 500 500"><defs><style>.cls-1{isolation:isolate;}.cls-2{fill:url(#linear-gradient);}.cls-3,.cls-6{fill:#fff;}.cls-3{opacity:0.4;mix-blend-mode:screen;}.cls-4{fill:#12100b;}.cls-5{fill:#7c4916;}.cls-7{fill:#e52d12;}</style><linearGradient id="linear-gradient" x1="250" y1="4.57" x2="250" y2="505.97" gradientUnits="userSpaceOnUse"><stop offset="0" stop-color="#ffda00"/><stop offset="0.38" stop-color="#fcd800"/><stop offset="0.63" stop-color="#f4d100"/><stop offset="0.83" stop-color="#e5c500"/><stop offset="1" stop-color="#d2b500"/></linearGradient></defs><g class="cls-1"><g id="Capa_2" data-name="Capa 2"><circle class="cls-2" cx="250" cy="250" r="250"/><path class="cls-3" d="M250,22.6C149.31,42.66,78.47,96.45,31.14,188.06,40.06,86,149.4,3.54,250,22.6Z" transform="translate(0 0)"/><circle class="cls-4" cx="119" cy="188.06" r="39.57"/><path class="cls-5" d="M119,190.46A37.21,37.21,0,0,0,88.89,205.8a34.94,34.94,0,0,0,60.22,0A37.19,37.19,0,0,0,119,190.46Z" transform="translate(0 0)"/><circle class="cls-4" cx="119" cy="188.06" r="19.84"/><path class="cls-6" d="M108.38,157.22a14.42,14.42,0,1,0,14.41,14.42A14.42,14.42,0,0,0,108.38,157.22Z" transform="translate(0 0)"/><circle class="cls-4" cx="381" cy="188.06" r="39.57" transform="translate(60.24 466.7) rotate(-67.25)"/><path class="cls-5" d="M381,190.46a37.19,37.19,0,0,0-30.11,15.34,34.94,34.94,0,0,0,60.22,0A37.21,37.21,0,0,0,381,190.46Z" transform="translate(0 0)"/><circle class="cls-4" cx="381" cy="188.06" r="19.84"/><circle class="cls-6" cx="370.37" cy="171.64" r="14.42"/><path class="cls-4" d="M269.93,215.66H230.07c-7.4,0-10.29,8.18-4.12,11.65l19.93,11.25a8.55,8.55,0,0,0,8.24,0l19.93-11.25C280.22,223.84,277.33,215.66,269.93,215.66Z" transform="translate(0 0)"/><path class="cls-4" d="M291.86,300.1c-11.38,0-26.51-3.89-41.86-19.25-17.61,17.63-34.94,20.15-46.64,19C187.29,298.32,175,289.25,170,280.94a4.11,4.11,0,1,1,7-4.27c3.85,6.35,14,13.75,27.16,15,10.5,1,26.45-1.56,42.81-19.57a4.12,4.12,0,0,1,6.08,0c16.36,18,32.31,20.58,42.81,19.57,13.17-1.27,23.31-8.67,27.16-15a4.11,4.11,0,1,1,7,4.27c-5,8.31-17.32,17.38-33.39,18.93C295.14,300,293.54,300.1,291.86,300.1Z" transform="translate(0 0)"/><circle class="cls-7" cx="441.54" cy="303.2" r="47.87"/><circle class="cls-7" cx="58.46" cy="303.2" r="47.87" transform="translate(-197.27 130.14) rotate(-45)"/></g></g></svg>