<svg xmlns="http://www.w3.org/2000/svg" xmlns:xlink="http://www.w3.org/1999/xlink" viewBox="0 0 500 500"><defs><style>.cls-1{isolation:isolate;}.cls-2{fill:url(#linear-gradient);}.cls-3{fill:#fff;opacity:0.4;mix-blend-mode:screen;}.cls-4{fill:#317172;}.cls-5{fill:#582e30;}.cls-6{fill:#f5f5f5;}.cls-7{fill:#e77678;}.cls-8{fill:#bc504f;}.cls-9{fill:#c33248;}.cls-10{fill:#dadada;mix-blend-mode:multiply;}</style><linearGradient id="linear-gradient" x1="250" x2="250" y2="500" gradientUnits="userSpaceOnUse"><stop offset="0" stop-color="#87c8ad"/><stop offset="0.36" stop-color="#84c6ab"/><stop offset="0.58" stop-color="#7cc1a5"/><stop offset="0.77" stop-color="#6db79a"/><stop offset="0.94" stop-color="#59a98b"/><stop offset="1" stop-color="#4fa384"/></linearGradient></defs><g class="cls-1"><g id="Capa_2" data-name="Capa 2"><circle class="cls-2" cx="250" cy="250" r="250"/><path class="cls-3" d="M250,22.6C149.31,42.66,78.47,96.45,31.14,188.06,40.06,86,149.4,3.54,250,22.6Z" transform="translate(0 0)"/><path class="cls-4" d="M304.41,243.45c-3.8-18.67,5.27-40.58,24.31-46.37C317.88,210.88,311.2,227.39,304.41,243.45Z" transform="translate(0 0)"/><path class="cls-4" d="M195.59,243.45c3.8-18.67-5.27-40.58-24.31-46.37C182.12,210.88,188.8,227.39,195.59,243.45Z" transform="translate(0 0)"/><path class="cls-4" d="M303.56,147.56s.87,20.7,0,23.41-24.73,18.45-27,19.81-15.76-21.61-14.86-25.67S299.47,145.3,303.56,147.56Z" transform="translate(0 0)"/><path class="cls-4" d="M181.67,93.75C191.21,86,233.14,55,240.78,50.44s52.84,15.79,55.47,21.65-64.64,93.83-69.22,97S174.21,99.8,181.67,93.75Z" transform="translate(0 0)"/><path class="cls-4" d="M180.89,169.08c4.75-4.42,14.2-2.78,18.7,0S214,190.83,214,190.83s-14,11.2-17.56,10.75S180.89,169.08,180.89,169.08Z" transform="translate(0 0)"/><path class="cls-4" d="M267.56,342.05c2.16-3-.17-6.82,6.3-8.11C273.18,339.05,269.81,338.91,267.56,342.05Z" transform="translate(0 0)"/><path class="cls-4" d="M232.44,342.05c-2.16-3,.17-6.82-6.3-8.11C226.82,339.05,230.19,338.91,232.44,342.05Z" transform="translate(0 0)"/><path class="cls-5" d="M250,422.19c-106.7,0-179-75-180.31-95.9,27.69,23,99.28,25.66,123.59,26.34s50,19.58,56.72,19.58,32.41-18.91,56.72-19.58,95.9-3.38,123.59-26.34C429,347.23,356.7,422.19,250,422.19Z" transform="translate(0 0)"/><path class="cls-6" d="M387.71,358.34c-1.17,5,9.36-1.6,10-15.53,0-.46,0-.89,0-1.3-4.27,1.21-8.71,2.28-13.22,3.24C386.29,348.27,388.67,354.22,387.71,358.34Z" transform="translate(0 0)"/><path class="cls-6" d="M112.29,358.34c-1-4.12,1.42-10.07,3.27-13.59-4.51-1-9-2-13.23-3.24,0,.41,0,.84,0,1.3C102.93,356.74,113.46,363.36,112.29,358.34Z" transform="translate(0 0)"/><path class="cls-7" d="M250,372.21c-6.75,0-32.41-18.91-56.72-19.58-8.22-.23-21.85-.69-37.35-2.09a136.25,136.25,0,0,0-36.72,30.77C150.84,403,196,422.19,250,422.19s99.16-19.2,130.79-40.88a136.25,136.25,0,0,0-36.72-30.77c-15.5,1.4-29.13,1.86-37.35,2.09C282.41,353.3,256.75,372.21,250,372.21Z" transform="translate(0 0)"/><path class="cls-8" d="M250,375.4c40,0,77.11,7.35,107.62,19.87a232.85,232.85,0,0,0,23.17-14,136.25,136.25,0,0,0-36.72-30.77c-15.5,1.4-29.13,1.86-37.35,2.09-24.31.67-50,19.58-56.72,19.58s-32.41-18.91-56.72-19.58c-8.22-.23-21.85-.69-37.35-2.09a136.25,136.25,0,0,0-36.72,30.77,232.85,232.85,0,0,0,23.17,14C172.89,382.75,210,375.4,250,375.4Z" transform="translate(0 0)"/><path class="cls-6" d="M312.14,288.78c-4.07-26.91,22.57-98.57,78.91-111.77,28.1-6.15,46.37,86.2,37.44,105C407.31,297.26,333.06,295.28,312.14,288.78Z" transform="translate(0 0)"/><path class="cls-9" d="M377.73,181.42c-47.2,20.3-69.33,82.66-65.59,107.36,12.95,4,46.35,6.31,74.93,3.85C411.06,236.35,396.24,202.26,377.73,181.42Z" transform="translate(0 0)"/><path class="cls-10" d="M397.78,191.07c7-1.39,13.44,2.64,19.11,9.87-6.77-15.45-15.66-26.15-25.84-23.93-56.34,13.2-83,84.86-78.91,111.77.81.25,1.71.49,2.68.73C318.26,257.45,346,202.12,397.78,191.07Z" transform="translate(0 0)"/><path class="cls-6" d="M359,220.26c-5.89,0-10.67,12-10.67,26.72s4.78,26.71,10.67,26.71,10.68-12,10.68-26.71S364.9,220.26,359,220.26Z" transform="translate(0 0)"/><path class="cls-6" d="M187.86,288.78C191.93,261.87,165.29,190.21,109,177c-28.1-6.15-46.37,86.2-37.44,105C92.69,297.26,166.94,295.28,187.86,288.78Z" transform="translate(0 0)"/><path class="cls-9" d="M122.27,181.42c47.2,20.3,69.33,82.66,65.59,107.36-13,4-46.35,6.31-74.93,3.85C88.94,236.35,103.76,202.26,122.27,181.42Z" transform="translate(0 0)"/><path class="cls-10" d="M102.22,191.07c-7-1.39-13.44,2.64-19.11,9.87C89.88,185.49,98.77,174.79,109,177c56.34,13.2,83,84.86,78.91,111.77-.81.25-1.71.49-2.68.73C181.74,257.45,154.05,202.12,102.22,191.07Z" transform="translate(0 0)"/><path class="cls-6" d="M141,220.26c5.89,0,10.67,12,10.67,26.72s-4.78,26.71-10.67,26.71-10.68-12-10.68-26.71S135.1,220.26,141,220.26Z" transform="translate(0 0)"/></g></g></svg>