<svg xmlns="http://www.w3.org/2000/svg" xmlns:xlink="http://www.w3.org/1999/xlink" viewBox="0 0 500 500"><defs><style>.cls-1{isolation:isolate;}.cls-2{fill:url(#linear-gradient);}.cls-3{fill:#582e30;}.cls-4{fill:#fffffd;}.cls-5{fill:#22241c;}.cls-6{fill:#328c7a;}.cls-7{fill:#23211c;}.cls-8{fill:#5b3116;}.cls-9{fill:#f18f89;}.cls-10{fill:#bc504f;}.cls-11{fill:#fff;opacity:0.4;mix-blend-mode:screen;}</style><linearGradient id="linear-gradient" x1="250" x2="250" y2="500" gradientUnits="userSpaceOnUse"><stop offset="0" stop-color="#f0841d"/><stop offset="0.42" stop-color="#ed821d"/><stop offset="0.69" stop-color="#e57a1d"/><stop offset="0.91" stop-color="#d66d1c"/><stop offset="1" stop-color="#ce661c"/></linearGradient></defs><g class="cls-1"><g id="Capa_2" data-name="Capa 2"><circle class="cls-2" cx="250" cy="250" r="250"/><path class="cls-3" d="M250,459.31c137.76,0,187.34-106.08,202.74-130.89C386,367.77,298.37,379.75,250,379.75s-136-12-202.74-51.33C62.66,353.23,112.24,459.31,250,459.31Z" transform="translate(0 0)"/><path class="cls-4" d="M368.52,268.31c-7.11-19.61-7.25-143.22,36.17-146.5,50-3.78,62.82,128.46,36.38,147S373.34,281.63,368.52,268.31Z" transform="translate(0 0)"/><path class="cls-5" d="M391.74,147.4c-6.13.32-11.81,3.14-16.79,7.92-12.85,39-11.23,99.74-6.43,113,4,11.1,33.38,16.95,58.36,7.84,6.86-14.17,10.57-33.63,9.49-54.89C434.23,179.32,414.25,146.26,391.74,147.4Z" transform="translate(0 0)"/><path class="cls-6" d="M397.37,201.38h-.28c-5.31.06-10.92,8.38-15.38,22.82-4.2,13.57-7,31-8.17,49.93C382.16,280,399.68,282.6,417,279,417.29,236.82,408.6,201.83,397.37,201.38Z" transform="translate(0 0)"/><path class="cls-7" d="M393.47,176.34c-12.81.65-22.34,18.06-21.28,38.89s12.31,37.18,25.12,36.53,22.33-18.06,21.27-38.89S406.28,175.68,393.47,176.34Z" transform="translate(0 0)"/><ellipse class="cls-4" cx="406.04" cy="188.53" rx="14.7" ry="24.7" transform="matrix(1, -0.02, 0.02, 1, -4.39, 9.76)"/><path class="cls-4" d="M131.48,268.31c7.11-19.61,7.25-143.22-36.17-146.5-50-3.78-62.82,128.46-36.38,147S126.66,281.63,131.48,268.31Z" transform="translate(0 0)"/><path class="cls-5" d="M108.26,147.4c6.13.32,11.81,3.14,16.79,7.92,12.85,39,11.23,99.74,6.43,113-4,11.1-33.38,16.95-58.36,7.84-6.85-14.17-10.57-33.63-9.49-54.89C65.77,179.32,85.75,146.26,108.26,147.4Z" transform="translate(0 0)"/><path class="cls-6" d="M102.63,201.38h.28c5.31.06,10.92,8.38,15.38,22.82,4.2,13.57,7,31,8.17,49.93C117.84,280,100.32,282.6,83,279,82.71,236.82,91.4,201.83,102.63,201.38Z" transform="translate(0 0)"/><ellipse class="cls-7" cx="104.61" cy="214.05" rx="37.76" ry="23.22" transform="translate(-114.48 307.64) rotate(-87.08)"/><path class="cls-4" d="M79.27,188.18c-.33,13.63,6,24.84,14.1,25s15-10.7,15.29-24.34-6-24.85-14.11-25S79.6,174.54,79.27,188.18Z" transform="translate(0 0)"/><circle class="cls-8" cx="271.78" cy="343.29" r="5.45"/><path class="cls-8" d="M228.22,337.85a5.45,5.45,0,1,0,5.44,5.44A5.45,5.45,0,0,0,228.22,337.85Z" transform="translate(0 0)"/><path class="cls-9" d="M397,403.39a203.41,203.41,0,0,0-52.67-34.52c-36.24,7.89-70.19,10.88-94.34,10.88s-58.1-3-94.34-10.88A203.58,203.58,0,0,0,103,403.39c31.54,29.53,78.3,55.92,147,55.92S365.47,432.92,397,403.39Z" transform="translate(0 0)"/><path class="cls-10" d="M250,389.47c48.2,0,91.6,13.1,122,34a209.31,209.31,0,0,0,25-20.1,203.41,203.41,0,0,0-52.67-34.52c-36.24,7.89-70.19,10.88-94.34,10.88s-58.1-3-94.34-10.88A203.58,203.58,0,0,0,103,403.39a209.31,209.31,0,0,0,25,20.1C158.4,402.57,201.8,389.47,250,389.47Z" transform="translate(0 0)"/><path class="cls-4" d="M308.18,452.28a203.22,203.22,0,0,0,26.73-8.82c-2.12-9.71-7.06-16.52-12.82-16.52C314.71,426.94,308.67,438.13,308.18,452.28Z" transform="translate(0 0)"/><path class="cls-4" d="M165.09,443.46a203.22,203.22,0,0,0,26.73,8.82c-.49-14.15-6.53-25.34-13.91-25.34C172.15,426.94,167.21,433.75,165.09,443.46Z" transform="translate(0 0)"/><path class="cls-4" d="M334.19,371c2,9.31,6.72,15.86,12.22,15.86,6.56,0,12-9.31,13-21.51C350.94,367.47,342.48,369.35,334.19,371Z" transform="translate(0 0)"/><path class="cls-4" d="M140.54,365.32c1.05,12.2,6.5,21.51,13.05,21.51,5.5,0,10.22-6.55,12.22-15.86C157.52,369.35,149.06,367.47,140.54,365.32Z" transform="translate(0 0)"/><path class="cls-11" d="M250,22.6C149.31,42.66,78.47,96.45,31.14,188.06,40.06,86,149.4,3.54,250,22.6Z" transform="translate(0 0)"/></g></g></svg>