<svg xmlns="http://www.w3.org/2000/svg" xmlns:xlink="http://www.w3.org/1999/xlink" viewBox="0 0 500 500"><defs><style>.cls-1{isolation:isolate;}.cls-2{fill:url(#linear-gradient);}.cls-3{fill:#589a9b;}.cls-4{fill:#582e30;}.cls-5{fill:#f18f89;}.cls-6{fill:#bc504f;}.cls-7{fill:#f4f8f7;}.cls-8{fill:#23211c;}.cls-9{fill:#a81a17;}.cls-10{fill:#fff;opacity:0.4;mix-blend-mode:screen;}</style><linearGradient id="linear-gradient" x1="250" x2="250" y2="500" gradientUnits="userSpaceOnUse"><stop offset="0" stop-color="#a3d7dc"/><stop offset="0.34" stop-color="#a0d5da"/><stop offset="0.55" stop-color="#98ced4"/><stop offset="0.73" stop-color="#89c3c9"/><stop offset="0.88" stop-color="#75b2b9"/><stop offset="1" stop-color="#60a2aa"/></linearGradient></defs><g class="cls-1"><g id="Capa_2" data-name="Capa 2"><circle class="cls-2" cx="250" cy="250" r="250"/><path class="cls-3" d="M429.17,336,461,332s3.11-5.3,3.65-8.22c.23,7.77-3.42,11.53-3.42,11.53l-27.06,6.51Z" transform="translate(0 0)"/><path class="cls-3" d="M70.83,336,39,332s-3.11-5.3-3.65-8.22c-.23,7.77,3.42,11.53,3.42,11.53l27.06,6.51Z" transform="translate(0 0)"/><path class="cls-4" d="M250,472.91c-173.91,0-189.38-138.19-189.38-138.19L250,357.28l189.38-22.56S423.91,472.91,250,472.91Z" transform="translate(0 0)"/><path class="cls-3" d="M261.56,326.43a4.22,4.22,0,1,0,4.22,4.22A4.23,4.23,0,0,0,261.56,326.43Z" transform="translate(0 0)"/><path class="cls-3" d="M238.44,326.43a4.22,4.22,0,1,0,4.23,4.22A4.22,4.22,0,0,0,238.44,326.43Z" transform="translate(0 0)"/><path class="cls-5" d="M250,472.91c85.41,0,132.61-33.33,158.52-67.26C397,381.45,377.62,360.52,353,345L250,357.28,147,345c-24.58,15.51-43.94,36.44-55.48,60.64C117.39,439.58,164.59,472.91,250,472.91Z" transform="translate(0 0)"/><path class="cls-6" d="M250,369.71c60.74,0,114.79,18.31,149.44,46.78q4.94-5.37,9.08-10.84C397,381.45,377.62,360.52,353,345L250,357.28,147,345c-24.58,15.51-43.94,36.44-55.48,60.64q4.15,5.46,9.08,10.84C135.21,388,189.26,369.71,250,369.71Z" transform="translate(0 0)"/><path class="cls-7" d="M342.05,269.19c4.28,11.64,102,6.45,108.28-11.87,12-34.93-15.88-145.87-62-145C341.43,113.26,322.59,216.23,342.05,269.19Z" transform="translate(0 0)"/><path class="cls-8" d="M378.75,146.87c-15.88,0-30.06,11-39.35,28.23-7.2,31.66-6.7,68.64,2.65,94.09,2.78,7.55,44.92,8,75.88,2.4,7.19-13.17,11.51-30,11.51-48.41C429.44,181,406.74,146.87,378.75,146.87Z" transform="translate(0 0)"/><path class="cls-9" d="M403.85,273.66c6.18-26.63,2.72-56.31-3-71.38,0,0-26,14.16-46.57,11-7.85,21.71-9.36,42-7.13,59.15l.18.29C357.87,276,381.71,276.21,403.85,273.66Z" transform="translate(0 0)"/><ellipse class="cls-8" cx="378.75" cy="205.15" rx="27.82" ry="41.88"/><ellipse class="cls-7" cx="388.72" cy="190.14" rx="17.84" ry="26.86"/><path class="cls-7" d="M158,269.19c-4.28,11.64-102,6.45-108.28-11.87-12-34.93,15.88-145.87,62-145C158.57,113.26,177.41,216.23,158,269.19Z" transform="translate(0 0)"/><path class="cls-8" d="M121.25,146.87c15.88,0,30.06,11,39.35,28.23,7.2,31.66,6.7,68.64-2.65,94.09-2.78,7.55-44.92,8-75.88,2.4-7.19-13.17-11.51-30-11.51-48.41C70.56,181,93.26,146.87,121.25,146.87Z" transform="translate(0 0)"/><path class="cls-9" d="M96.15,273.66C90,247,93.43,217.35,99.1,202.28c0,0,26,14.16,46.57,11,7.85,21.71,9.36,42,7.13,59.15l-.18.29C142.13,276,118.29,276.21,96.15,273.66Z" transform="translate(0 0)"/><ellipse class="cls-8" cx="121.25" cy="205.15" rx="27.82" ry="41.88"/><ellipse class="cls-7" cx="111.28" cy="190.14" rx="17.84" ry="26.86"/><path class="cls-10" d="M250,22.6C149.31,42.66,78.47,96.45,31.14,188.06,40.06,86,149.4,3.54,250,22.6Z" transform="translate(0 0)"/></g></g></svg>