<svg xmlns="http://www.w3.org/2000/svg" xmlns:xlink="http://www.w3.org/1999/xlink" viewBox="0 0 500 500"><defs><style>.cls-1{isolation:isolate;}.cls-2{fill:#0d7573;}.cls-3{fill:url(#linear-gradient);}.cls-4{fill:#3d362b;}.cls-5,.cls-7{fill:#fff;}.cls-6{fill:#f5f5f6;}.cls-7{opacity:0.4;mix-blend-mode:screen;}</style><linearGradient id="linear-gradient" x1="250" y1="96.73" x2="250" y2="500" gradientUnits="userSpaceOnUse"><stop offset="0" stop-color="#ffeec5"/><stop offset="0.47" stop-color="#fcecc3"/><stop offset="0.76" stop-color="#f4e4bd"/><stop offset="1" stop-color="#e6d8b4"/></linearGradient></defs><g class="cls-1"><g id="Capa_2" data-name="Capa 2"><circle class="cls-2" cx="250" cy="250" r="250"/><path class="cls-3" d="M348.6,96.73,250,158,151.4,96.73C71.83,132.28,16.68,209.53,16.68,299.11a214.17,214.17,0,0,0,8.82,61,250.09,250.09,0,0,0,449,0,214.17,214.17,0,0,0,8.82-61C483.32,209.53,428.17,132.28,348.6,96.73Z" transform="translate(0 0)"/><path class="cls-4" d="M422.35,268.86a5.59,5.59,0,0,1-1.14-.12,268.19,268.19,0,0,0-117.93,0,5.14,5.14,0,0,1-2.27-10,278.42,278.42,0,0,1,122.47,0,5.13,5.13,0,0,1-1.13,10.14Z" transform="translate(0 0)"/><path class="cls-4" d="M197.86,268.86a5.52,5.52,0,0,1-1.14-.12,268.19,268.19,0,0,0-117.93,0,5.14,5.14,0,1,1-2.27-10,278.42,278.42,0,0,1,122.47,0,5.13,5.13,0,0,1-1.13,10.14Z" transform="translate(0 0)"/><path class="cls-5" d="M349.71,360.3,343.9,333a6.74,6.74,0,0,0-12.79-1.27L320.5,356.28Q335.14,358,349.71,360.3Z" transform="translate(0 0)"/><path class="cls-6" d="M349.71,360.3,343.9,333a6.75,6.75,0,0,0-8.85-5c3.64,3.34,6.87,11,4.41,30.71C342.88,359.24,346.3,359.75,349.71,360.3Z" transform="translate(0 0)"/><path class="cls-5" d="M150.29,360.3,156.1,333a6.74,6.74,0,0,1,12.79-1.27l10.61,24.54Q164.86,358,150.29,360.3Z" transform="translate(0 0)"/><path class="cls-6" d="M168.89,331.74a6.68,6.68,0,0,0-8.06-3.81c4.08,3.85,8.45,11.95,9.09,29.53q4.8-.63,9.58-1.18Z" transform="translate(0 0)"/><path class="cls-4" d="M352.23,365.49a4.47,4.47,0,0,1-.89-.08,588.08,588.08,0,0,0-202.68,0,5.14,5.14,0,1,1-1.76-10.12,598,598,0,0,1,206.2,0,5.14,5.14,0,0,1-.87,10.2Z" transform="translate(0 0)"/><path class="cls-7" d="M250,22.6C149.31,42.66,78.47,96.45,31.14,188.06,40.06,86,149.4,3.54,250,22.6Z" transform="translate(0 0)"/></g></g></svg>