<svg xmlns="http://www.w3.org/2000/svg" xmlns:xlink="http://www.w3.org/1999/xlink" viewBox="0 0 500 500"><defs><style>.cls-1{isolation:isolate;}.cls-2{fill:url(#linear-gradient);}.cls-3{fill:#fcfafa;}.cls-4{fill:#1485ae;}.cls-5{fill:#7ccadb;}.cls-6{fill:#702437;}.cls-7{fill:#ef82a2;}.cls-8{fill:#c55375;}.cls-9{fill:#fad7e8;}.cls-10{fill:#fcf2f7;}.cls-11{fill:#dab2c7;}.cls-12{fill:#fff;opacity:0.4;mix-blend-mode:screen;}</style><linearGradient id="linear-gradient" x1="250" x2="250" y2="500" gradientUnits="userSpaceOnUse"><stop offset="0" stop-color="#fad7e8"/><stop offset="0.42" stop-color="#f8d4e6"/><stop offset="0.68" stop-color="#f3ccdf"/><stop offset="0.9" stop-color="#eabdd3"/><stop offset="1" stop-color="#e4b4cb"/></linearGradient></defs><g class="cls-1"><g id="Capa_2" data-name="Capa 2"><circle class="cls-2" cx="250" cy="250" r="250"/><circle class="cls-3" cx="372.59" cy="251.7" r="86.9" transform="translate(-68.85 337.18) rotate(-45)"/><circle class="cls-4" cx="372.59" cy="251.7" r="69.92"/><ellipse class="cls-5" cx="372.59" cy="282.96" rx="54.14" ry="31.26"/><circle class="cls-4" cx="372.59" cy="251.7" r="48.07" transform="translate(-3.84 497.62) rotate(-67.2)"/><path class="cls-3" d="M393.86,198.21a21.27,21.27,0,1,0,21.26,21.27A21.27,21.27,0,0,0,393.86,198.21Z" transform="translate(0 0)"/><circle class="cls-3" cx="127.41" cy="251.7" r="86.9" transform="translate(-140.66 163.81) rotate(-45)"/><circle class="cls-4" cx="127.41" cy="251.7" r="69.92"/><ellipse class="cls-5" cx="127.41" cy="282.96" rx="54.14" ry="31.26"/><circle class="cls-4" cx="127.41" cy="251.7" r="48.07" transform="translate(-154 271.6) rotate(-67.2)"/><path class="cls-3" d="M148.68,198.21a21.27,21.27,0,1,0,21.26,21.27A21.27,21.27,0,0,0,148.68,198.21Z" transform="translate(0 0)"/><path class="cls-6" d="M220.85,332.33c0,.37,0,.74,0,1.12,0,20.12,13.06,36.43,29.17,36.43s29.17-16.31,29.17-36.43c0-.38,0-.75,0-1.12a75.55,75.55,0,0,0-58.3,0Z" transform="translate(0 0)"/><path class="cls-7" d="M272.92,330a77,77,0,0,0-45.84,0,37.73,37.73,0,0,0-3.82,16.72c0,.48,0,.95,0,1.42,4.52,12.82,14.78,21.77,26.71,21.77s22.19-8.95,26.71-21.77c0-.47,0-.94,0-1.42A37.73,37.73,0,0,0,272.92,330Z" transform="translate(0 0)"/><path class="cls-8" d="M250,331.79a38.67,38.67,0,0,1,26.43,10.08,36.83,36.83,0,0,0-3.51-11.9,77,77,0,0,0-45.84,0,36.83,36.83,0,0,0-3.51,11.9A38.67,38.67,0,0,1,250,331.79Z" transform="translate(0 0)"/><path class="cls-9" d="M150.51,20.58a100.09,100.09,0,0,0-13.39,25.76,96.24,96.24,0,0,0-5.38,31.22A109.44,109.44,0,0,0,136,108.24a114.48,114.48,0,0,0,12.77,28.65,120.26,120.26,0,0,0,10.77,14.63c2.54,3,5.29,5.75,8.11,8.46A121.45,121.45,0,0,0,192,177.87a136.23,136.23,0,0,0,29.83,12.41,131.55,131.55,0,0,0,18.83,4,126.82,126.82,0,0,0,29.27.64,93.18,93.18,0,0,0,21.94-4.78,87.35,87.35,0,0,0,18.75-9.23A71.71,71.71,0,0,0,331,160.79q1.34-2,2.52-4.13c6.29-11.29,9.08-24.68,6.88-37.49A51.54,51.54,0,0,0,328.21,94a50.61,50.61,0,0,0-28.5-16.27,51.81,51.81,0,0,0-33,4.58,46,46,0,0,0-14.95,12.17,41,41,0,0,0-5.1,8.16,33.24,33.24,0,0,0-1.8,4.56c-.15.5-.5,1.58-.56,1.89a40.15,40.15,0,0,0-1,7.88,36.35,36.35,0,0,0,1.12,9.63,32.51,32.51,0,0,0,7.75,14.3A27.9,27.9,0,0,0,265,148.5a33.44,33.44,0,0,0,15.88.26,31.67,31.67,0,0,0,7.4-2.57A49.12,49.12,0,0,0,294,142.6a23.3,23.3,0,0,1-1.58,2.57c-7.81,10.39-22.84,12.31-34.28,7.41-10.25-4.4-17.37-14.23-20-24.87a42.1,42.1,0,0,1-.39-18.75,44.51,44.51,0,0,1,6.82-15.75A52.84,52.84,0,0,1,271.47,73a60.36,60.36,0,0,1,39.15.51,59.57,59.57,0,0,0,.9-13.73,70.66,70.66,0,0,0-9.08-30.43,93.48,93.48,0,0,0-18.15-23q-2.71-2.49-5.63-4.74a251.2,251.2,0,0,0-128.15,19Z" transform="translate(0 0)"/><path class="cls-10" d="M249.22,107.24c.07-.31.41-1.41.56-1.93a33.51,33.51,0,0,1,1.78-4.65,42.27,42.27,0,0,1,5-8.34,46.35,46.35,0,0,1,12.23-11c-.72.31-1.43.65-2.13,1a46,46,0,0,0-14.95,12.17,41,41,0,0,0-5.1,8.16,33.24,33.24,0,0,0-1.8,4.56c-.15.5-.5,1.58-.56,1.89a40.15,40.15,0,0,0-1,7.88,36.35,36.35,0,0,0,1.12,9.63,32.51,32.51,0,0,0,7.75,14.3A27.9,27.9,0,0,0,265,148.5a33.44,33.44,0,0,0,15.88.26c.78-.17,1.56-.38,2.32-.61a31.16,31.16,0,0,1-13.49-.67A27.5,27.5,0,0,1,257,139.75a33.42,33.42,0,0,1-7.66-14.61,37.92,37.92,0,0,1-1.11-9.84A43,43,0,0,1,249.22,107.24Z" transform="translate(0 0)"/><path class="cls-10" d="M311.18,69.65a57.88,57.88,0,0,0-35.08.67,50.24,50.24,0,0,0-10.5,5A50.11,50.11,0,0,1,271.47,73a60.36,60.36,0,0,1,39.15.51C310.85,72.22,311,70.93,311.18,69.65Z" transform="translate(0 0)"/><path class="cls-10" d="M245.61,194.21a126.37,126.37,0,0,1-18.62-4,132.89,132.89,0,0,1-29.51-12.68,120.66,120.66,0,0,1-24-18.28c-2.79-2.77-5.51-5.6-8-8.64a125.1,125.1,0,0,1-10.65-15,118.78,118.78,0,0,1-12.63-29.28A115.1,115.1,0,0,1,137.9,75a101.29,101.29,0,0,1,5.33-31.89,103.68,103.68,0,0,1,12-24.51q-2.37,1-4.73,2a100.09,100.09,0,0,0-13.39,25.76,96.24,96.24,0,0,0-5.38,31.22A109.44,109.44,0,0,0,136,108.24a114.48,114.48,0,0,0,12.77,28.65,120.26,120.26,0,0,0,10.77,14.63c2.54,3,5.29,5.75,8.11,8.46A121.45,121.45,0,0,0,192,177.87a136.23,136.23,0,0,0,29.83,12.41,131.55,131.55,0,0,0,18.83,4,136.4,136.4,0,0,0,20.08,1.17A134.51,134.51,0,0,1,245.61,194.21Z" transform="translate(0 0)"/><path class="cls-11" d="M284.29,6.37a93.48,93.48,0,0,1,18.15,23,70.66,70.66,0,0,1,9.08,30.43,59.57,59.57,0,0,1-.9,13.73A60.36,60.36,0,0,0,271.47,73a52.84,52.84,0,0,0-26.91,20.22A44.51,44.51,0,0,0,237.74,109a42.1,42.1,0,0,0,.39,18.75c2.67,10.64,9.79,20.47,20,24.87,11.44,4.9,26.47,3,34.28-7.41A23.3,23.3,0,0,0,294,142.6a49.12,49.12,0,0,1-5.77,3.59,31.67,31.67,0,0,1-7.4,2.57A33.44,33.44,0,0,1,265,148.5a27.9,27.9,0,0,1-12.87-7.56,32.51,32.51,0,0,1-7.75-14.3,36.35,36.35,0,0,1-1.12-9.63,40.15,40.15,0,0,1,1-7.88c.06-.31.41-1.39.56-1.89a33.24,33.24,0,0,1,1.8-4.56,41,41,0,0,1,5.1-8.16A46,46,0,0,1,266.7,82.35a51.81,51.81,0,0,1,33-4.58A50.61,50.61,0,0,1,328.21,94a51.54,51.54,0,0,1,12.15,25.13c2.2,12.81-.59,26.2-6.88,37.49q-1.19,2.11-2.52,4.13a71.71,71.71,0,0,1-20.36,20.08,87.35,87.35,0,0,1-18.75,9.23,93.18,93.18,0,0,1-21.94,4.78,126.82,126.82,0,0,1-29.27-.64,131.55,131.55,0,0,1-18.83-4A136.23,136.23,0,0,1,192,177.87,121.45,121.45,0,0,1,167.67,160c-2.82-2.71-5.57-5.48-8.11-8.46a120.26,120.26,0,0,1-10.77-14.63A114.48,114.48,0,0,1,136,108.24a109.44,109.44,0,0,1-4.28-30.68,96.24,96.24,0,0,1,5.38-31.22,100.09,100.09,0,0,1,13.39-25.76q-7.27,3.17-14.31,6.76a110.17,110.17,0,0,0-5.7,12.2,103.34,103.34,0,0,0-7.09,31.55,115.74,115.74,0,0,0,3.74,37.28,126.28,126.28,0,0,0,7.25,19.84,138.25,138.25,0,0,0,8,14.45,105.28,105.28,0,0,0,6.39,9c2,2.62,4.14,5.24,6.42,7.65a141.41,141.41,0,0,0,17.5,15.85,140,140,0,0,0,35.88,19.48,132.54,132.54,0,0,0,18.3,5.43c3.6.77,7.21,1.42,10.84,2a125,125,0,0,0,34.29.65A103.57,103.57,0,0,0,303.33,194a83.62,83.62,0,0,0,29.17-22.31A69.8,69.8,0,0,0,348,137.22a60.91,60.91,0,0,0-.26-19.34A59.32,59.32,0,0,0,322.31,79.4c-1.21-.78-2.44-1.53-3.7-2.24a3.55,3.55,0,0,1-.76-.43c-.09-.1-.12-.09-.13-.08s0-.06,0-.2a2,2,0,0,1,.09-.35c.09-.42.16-.84.25-1.26a65.84,65.84,0,0,0,1.1-8.85c.71-13.36-2.78-26.65-8.75-38.53A93.9,93.9,0,0,0,293.1,3.71q-7.16-1.25-14.44-2.08Q281.57,3.88,284.29,6.37Z" transform="translate(0 0)"/><path class="cls-12" d="M250,22.6C149.31,42.66,78.47,96.45,31.14,188.06,40.06,86,149.4,3.54,250,22.6Z" transform="translate(0 0)"/></g></g></svg>