<svg xmlns="http://www.w3.org/2000/svg" xmlns:xlink="http://www.w3.org/1999/xlink" viewBox="0 0 500 500"><defs><style>.cls-1{isolation:isolate;}.cls-2{fill:url(#linear-gradient);}.cls-3{fill:#76c5b8;}.cls-4{fill:#fff;opacity:0.7;mix-blend-mode:screen;}</style><linearGradient id="linear-gradient" x1="250" x2="250" y2="500" gradientUnits="userSpaceOnUse"><stop offset="0" stop-color="#f6f6f8"/><stop offset="0.41" stop-color="#f3f3f6"/><stop offset="0.66" stop-color="#ebebef"/><stop offset="0.88" stop-color="#dcdde2"/><stop offset="1" stop-color="#d0d1d8"/></linearGradient></defs><g class="cls-1"><g id="Capa_2" data-name="Capa 2"><circle class="cls-2" cx="250" cy="250" r="250"/><path class="cls-3" d="M190.77,480.29C224.57,462.52,234.05,414.05,212,372s-67.4-61.67-101.2-43.9S67.48,394.38,89.58,436.39a106.83,106.83,0,0,0,6.27,10.44,249.36,249.36,0,0,0,73.23,39.78A57,57,0,0,0,190.77,480.29Z" transform="translate(0 0)"/><ellipse class="cls-3" cx="394.03" cy="153.29" rx="67.75" ry="85.31" transform="translate(-28.66 162.7) rotate(-22.53)"/><ellipse class="cls-3" cx="377.53" cy="369.88" rx="61.3" ry="46.98" transform="translate(-72.18 647.55) rotate(-76.11)"/><ellipse class="cls-3" cx="134.66" cy="71.29" rx="37.06" ry="28.4" transform="translate(-1.9 138.87) rotate(-54.23)"/><ellipse class="cls-3" cx="181.64" cy="203.63" rx="46.98" ry="61.3"/><path class="cls-4" d="M250,22.6C149.31,42.66,78.47,96.45,31.14,188.06,40.06,86,149.4,3.54,250,22.6Z" transform="translate(0 0)"/></g></g></svg>