<svg xmlns="http://www.w3.org/2000/svg" xmlns:xlink="http://www.w3.org/1999/xlink" viewBox="0 0 500 500"><defs><style>.cls-1{isolation:isolate;}.cls-2{fill:#fcf2c7;}.cls-3{fill:url(#linear-gradient);}.cls-12,.cls-4{fill:#fff;}.cls-5{fill:#1b2016;}.cls-6{fill:#6a60a7;}.cls-7{fill:#6f6445;}.cls-8{fill:#cfc191;}.cls-9{fill:#fdc500;}.cls-10{fill:#fdf9ef;}.cls-11{fill:#8e6d1d;}.cls-12{opacity:0.4;mix-blend-mode:screen;}</style><linearGradient id="linear-gradient" x1="250" x2="250" y2="500" gradientUnits="userSpaceOnUse"><stop offset="0" stop-color="#fcf2c7"/><stop offset="0.37" stop-color="#faf0c4"/><stop offset="0.6" stop-color="#f4eabc"/><stop offset="0.8" stop-color="#e9dfad"/><stop offset="0.97" stop-color="#d9cf99"/><stop offset="1" stop-color="#d6cc94"/></linearGradient></defs><g class="cls-1"><g id="Capa_2" data-name="Capa 2"><circle class="cls-2" cx="250" cy="250" r="250"/><circle class="cls-3" cx="250" cy="250" r="250"/><path class="cls-4" d="M297.11,245.9c15.62-26.55,27.07-89,80.69-89,51,0,79.13,25,85.9,90.06-5.73,20.3-33.84,59.86-78.61,59.86C326.27,306.8,312.73,263.6,297.11,245.9Z" transform="translate(0 0)"/><path class="cls-4" d="M202.89,245.9c-15.62-26.55-27.07-89-80.69-89-51,0-79.13,25-85.9,90.06,5.73,20.3,33.84,59.86,78.61,59.86C173.73,306.8,187.27,263.6,202.89,245.9Z" transform="translate(0 0)"/><ellipse class="cls-5" cx="376.7" cy="233.92" rx="17.18" ry="57.78"/><path class="cls-6" d="M376.7,229.4c-5.46,0-10.18,10.5-12.49,25.8,2.31,15.31,7,25.8,12.49,25.8s10.17-10.49,12.48-25.8C386.87,239.9,382.15,229.4,376.7,229.4Z" transform="translate(0 0)"/><path class="cls-5" d="M376.7,215.58c-6.87,0-12.44,9.61-12.44,21.45s5.57,21.45,12.44,21.45,12.43-9.6,12.43-21.45S383.56,215.58,376.7,215.58Z" transform="translate(0 0)"/><path class="cls-4" d="M385.62,208.55c0,10.35-2.58,18.75-5.77,18.75s-5.76-8.4-5.76-18.75,2.58-18.74,5.76-18.74S385.62,198.2,385.62,208.55Z" transform="translate(0 0)"/><ellipse class="cls-5" cx="123.3" cy="233.92" rx="17.18" ry="57.78"/><path class="cls-6" d="M123.3,229.4c-5.45,0-10.17,10.5-12.48,25.8,2.31,15.31,7,25.8,12.48,25.8s10.18-10.49,12.49-25.8C133.48,239.9,128.76,229.4,123.3,229.4Z" transform="translate(0 0)"/><ellipse class="cls-5" cx="123.3" cy="237.03" rx="12.44" ry="21.45"/><ellipse class="cls-4" cx="126.46" cy="208.55" rx="5.76" ry="18.74"/><path class="cls-4" d="M140.28,378.11c-3.59.6-6.91,1-10,1.34,4.42,6.55,11.56,16.92,12.5,16.92,1.22,0,9.29-7.4,13-20.77Q148.28,376.77,140.28,378.11Z" transform="translate(0 0)"/><path class="cls-4" d="M359.72,378.11q-8-1.35-15.52-2.51c3.7,13.37,11.77,20.77,13,20.77.94,0,8.08-10.37,12.5-16.92C366.63,379.15,363.31,378.71,359.72,378.11Z" transform="translate(0 0)"/><path class="cls-7" d="M378.74,383.34a119.45,119.45,0,0,1-19.59-1.85C302.36,372,262.92,369.42,250,369.42S197.64,372,140.85,381.49c-34,5.72-44.27-2.9-46.86-11.14-2.83-9,3.39-18.82,8.75-21.36a3.42,3.42,0,1,1,2.93,6.19c-2.69,1.27-6.81,7.84-5.15,13.12,1.17,3.72,7.33,11.78,39.19,6.43C197,365.12,236.88,362.57,250,362.57s53.05,2.55,110.29,12.16c31.86,5.36,38-2.71,39.19-6.43,1.66-5.28-2.46-11.85-5.15-13.12a3.42,3.42,0,0,1,2.93-6.19c5.36,2.54,11.58,12.35,8.75,21.36C404,376.73,397.42,383.34,378.74,383.34Z" transform="translate(0 0)"/><path class="cls-8" d="M253.1,0a251.31,251.31,0,0,0-44.45,4.23v84a46.15,46.15,0,0,0,92.29,0V5.2A250.39,250.39,0,0,0,253.1,0Z" transform="translate(0 0)"/><path class="cls-9" d="M250,0a251.4,251.4,0,0,0-46.14,4.25v84a46.14,46.14,0,1,0,92.28,0v-84A251.32,251.32,0,0,0,250,0Z" transform="translate(0 0)"/><path class="cls-10" d="M250,0c-5.48,0-10.92.19-16.32.54L203.86,52.2V88.27a46.36,46.36,0,0,0,1.2,10.47L261.91.28Q256,0,250,0Z" transform="translate(0 0)"/><path class="cls-10" d="M282.59,2.12c-2.95-.38-5.92-.73-8.9-1L210.05,111.34a45.9,45.9,0,0,0,5.25,7.33Z" transform="translate(0 0)"/><path class="cls-11" d="M203.86,88.27c0,.67,0,1.34,0,2,0,.28,0,.57,0,.85s.05.67.08,1c.07.86.16,1.71.28,2.56h91.38c.12-.85.21-1.7.28-2.56,0-.33.06-.67.08-1s0-.57,0-.85c0-.67.05-1.34.05-2v-1H203.86Z" transform="translate(0 0)"/><rect class="cls-11" x="203.86" y="52.3" width="92.29" height="7.39"/><rect class="cls-11" x="203.86" y="17.3" width="92.29" height="7.39"/><path class="cls-12" d="M250,22.6C149.31,42.66,78.47,96.45,31.14,188.06,40.06,86,149.4,3.54,250,22.6Z" transform="translate(0 0)"/></g></g></svg>